<mxfile host="app.diagrams.net" modified="2022-04-04T03:52:41.263Z" agent="5.0 (Windows NT 10.0; Win64; x64) AppleWebKit/537.36 (KHTML, like Gecko) Chrome/99.0.4844.84 Safari/537.36" etag="tIKUwCfTxz1l8SksKtjG" version="17.4.0" type="github">
  <diagram id="px6dreDy5lvPG2VvPyfn" name="Page-1">
    <mxGraphModel dx="2844" dy="1508" grid="1" gridSize="10" guides="1" tooltips="1" connect="1" arrows="1" fold="1" page="1" pageScale="1" pageWidth="2500" pageHeight="1500" math="0" shadow="0">
      <root>
        <mxCell id="0" />
        <mxCell id="1" parent="0" />
        <mxCell id="4-qWNyt98Z3QxgI1turu-1" value="" style="rounded=0;whiteSpace=wrap;html=1;" vertex="1" parent="1">
          <mxGeometry x="60" y="1380" width="2360" height="50" as="geometry" />
        </mxCell>
        <mxCell id="4-qWNyt98Z3QxgI1turu-83" style="edgeStyle=orthogonalEdgeStyle;rounded=0;orthogonalLoop=1;jettySize=auto;html=1;entryX=1;entryY=0.5;entryDx=0;entryDy=0;fontSize=24;" edge="1" parent="1" source="4-qWNyt98Z3QxgI1turu-2" target="4-qWNyt98Z3QxgI1turu-23">
          <mxGeometry relative="1" as="geometry" />
        </mxCell>
        <mxCell id="4-qWNyt98Z3QxgI1turu-2" value="&lt;font style=&quot;font-size: 18px&quot;&gt;PC Sel&lt;/font&gt;" style="text;html=1;align=center;verticalAlign=middle;resizable=0;points=[];autosize=1;strokeColor=none;fillColor=none;" vertex="1" parent="1">
          <mxGeometry x="74" y="1395" width="70" height="20" as="geometry" />
        </mxCell>
        <mxCell id="4-qWNyt98Z3QxgI1turu-90" style="edgeStyle=orthogonalEdgeStyle;rounded=0;orthogonalLoop=1;jettySize=auto;html=1;entryX=1;entryY=0.5;entryDx=0;entryDy=0;fontSize=24;" edge="1" parent="1" source="4-qWNyt98Z3QxgI1turu-4" target="4-qWNyt98Z3QxgI1turu-47">
          <mxGeometry relative="1" as="geometry">
            <Array as="points">
              <mxPoint x="245" y="870" />
              <mxPoint x="509" y="870" />
            </Array>
          </mxGeometry>
        </mxCell>
        <mxCell id="4-qWNyt98Z3QxgI1turu-4" value="Kill" style="text;html=1;align=center;verticalAlign=middle;resizable=0;points=[];autosize=1;strokeColor=none;fillColor=none;fontSize=18;" vertex="1" parent="1">
          <mxGeometry x="225" y="1390" width="40" height="30" as="geometry" />
        </mxCell>
        <mxCell id="4-qWNyt98Z3QxgI1turu-5" value="Instr" style="text;html=1;align=center;verticalAlign=middle;resizable=0;points=[];autosize=1;strokeColor=none;fillColor=none;fontSize=18;" vertex="1" parent="1">
          <mxGeometry x="335" y="1390" width="50" height="30" as="geometry" />
        </mxCell>
        <mxCell id="4-qWNyt98Z3QxgI1turu-96" style="edgeStyle=orthogonalEdgeStyle;rounded=0;orthogonalLoop=1;jettySize=auto;html=1;entryX=1;entryY=0.5;entryDx=0;entryDy=0;fontSize=24;" edge="1" parent="1" source="4-qWNyt98Z3QxgI1turu-6" target="4-qWNyt98Z3QxgI1turu-92">
          <mxGeometry relative="1" as="geometry">
            <Array as="points">
              <mxPoint x="425" y="920" />
              <mxPoint x="835" y="920" />
            </Array>
          </mxGeometry>
        </mxCell>
        <mxCell id="4-qWNyt98Z3QxgI1turu-6" value="Imm Sel" style="text;html=1;align=center;verticalAlign=middle;resizable=0;points=[];autosize=1;strokeColor=none;fillColor=none;fontSize=18;" vertex="1" parent="1">
          <mxGeometry x="385" y="1390" width="80" height="30" as="geometry" />
        </mxCell>
        <mxCell id="4-qWNyt98Z3QxgI1turu-7" value="Reg Wr_En" style="text;html=1;align=center;verticalAlign=middle;resizable=0;points=[];autosize=1;strokeColor=none;fillColor=none;fontSize=18;" vertex="1" parent="1">
          <mxGeometry x="460" y="1390" width="110" height="30" as="geometry" />
        </mxCell>
        <mxCell id="4-qWNyt98Z3QxgI1turu-8" value="Fwd_A" style="text;html=1;align=center;verticalAlign=middle;resizable=0;points=[];autosize=1;strokeColor=none;fillColor=none;fontSize=18;" vertex="1" parent="1">
          <mxGeometry x="580" y="1390" width="70" height="30" as="geometry" />
        </mxCell>
        <mxCell id="4-qWNyt98Z3QxgI1turu-9" value="Fwd_B" style="text;html=1;align=center;verticalAlign=middle;resizable=0;points=[];autosize=1;strokeColor=none;fillColor=none;fontSize=18;" vertex="1" parent="1">
          <mxGeometry x="650" y="1390" width="70" height="30" as="geometry" />
        </mxCell>
        <mxCell id="4-qWNyt98Z3QxgI1turu-11" value="BrUn" style="text;html=1;align=center;verticalAlign=middle;resizable=0;points=[];autosize=1;strokeColor=none;fillColor=none;fontSize=18;" vertex="1" parent="1">
          <mxGeometry x="785" y="1390" width="60" height="30" as="geometry" />
        </mxCell>
        <mxCell id="4-qWNyt98Z3QxgI1turu-12" value="BrEq" style="text;html=1;align=center;verticalAlign=middle;resizable=0;points=[];autosize=1;strokeColor=none;fillColor=none;fontSize=18;" vertex="1" parent="1">
          <mxGeometry x="865" y="1390" width="60" height="30" as="geometry" />
        </mxCell>
        <mxCell id="4-qWNyt98Z3QxgI1turu-13" value="BrLT" style="text;html=1;align=center;verticalAlign=middle;resizable=0;points=[];autosize=1;strokeColor=none;fillColor=none;fontSize=18;" vertex="1" parent="1">
          <mxGeometry x="945" y="1390" width="50" height="30" as="geometry" />
        </mxCell>
        <mxCell id="4-qWNyt98Z3QxgI1turu-14" value="A_Sel" style="text;html=1;align=center;verticalAlign=middle;resizable=0;points=[];autosize=1;strokeColor=none;fillColor=none;fontSize=18;" vertex="1" parent="1">
          <mxGeometry x="1045" y="1390" width="60" height="30" as="geometry" />
        </mxCell>
        <mxCell id="4-qWNyt98Z3QxgI1turu-15" value="B_Sel" style="text;html=1;align=center;verticalAlign=middle;resizable=0;points=[];autosize=1;strokeColor=none;fillColor=none;fontSize=18;" vertex="1" parent="1">
          <mxGeometry x="1155" y="1390" width="60" height="30" as="geometry" />
        </mxCell>
        <mxCell id="4-qWNyt98Z3QxgI1turu-16" value="Stall" style="text;html=1;align=center;verticalAlign=middle;resizable=0;points=[];autosize=1;strokeColor=none;fillColor=none;fontSize=18;" vertex="1" parent="1">
          <mxGeometry x="1260" y="1390" width="50" height="30" as="geometry" />
        </mxCell>
        <mxCell id="4-qWNyt98Z3QxgI1turu-17" value="D Wr_En" style="text;html=1;align=center;verticalAlign=middle;resizable=0;points=[];autosize=1;strokeColor=none;fillColor=none;fontSize=18;" vertex="1" parent="1">
          <mxGeometry x="1380" y="1390" width="90" height="30" as="geometry" />
        </mxCell>
        <mxCell id="4-qWNyt98Z3QxgI1turu-18" value="Ld Sel" style="text;html=1;align=center;verticalAlign=middle;resizable=0;points=[];autosize=1;strokeColor=none;fillColor=none;fontSize=18;" vertex="1" parent="1">
          <mxGeometry x="1610" y="1390" width="70" height="30" as="geometry" />
        </mxCell>
        <mxCell id="4-qWNyt98Z3QxgI1turu-19" value="WB Sel" style="text;html=1;align=center;verticalAlign=middle;resizable=0;points=[];autosize=1;strokeColor=none;fillColor=none;fontSize=18;" vertex="1" parent="1">
          <mxGeometry x="1695" y="1390" width="80" height="30" as="geometry" />
        </mxCell>
        <mxCell id="4-qWNyt98Z3QxgI1turu-20" value="&lt;font style=&quot;font-size: 48px&quot;&gt;FETCH&lt;/font&gt;" style="text;html=1;align=center;verticalAlign=middle;resizable=0;points=[];autosize=1;strokeColor=none;fillColor=none;fontSize=18;" vertex="1" parent="1">
          <mxGeometry x="270" y="30" width="180" height="40" as="geometry" />
        </mxCell>
        <mxCell id="4-qWNyt98Z3QxgI1turu-21" value="EXECUTE" style="text;html=1;align=center;verticalAlign=middle;resizable=0;points=[];autosize=1;strokeColor=none;fillColor=none;fontSize=48;" vertex="1" parent="1">
          <mxGeometry x="880" y="20" width="240" height="60" as="geometry" />
        </mxCell>
        <mxCell id="4-qWNyt98Z3QxgI1turu-22" value="MEM/WRITE BACK" style="text;html=1;align=center;verticalAlign=middle;resizable=0;points=[];autosize=1;strokeColor=none;fillColor=none;fontSize=48;" vertex="1" parent="1">
          <mxGeometry x="1470" y="20" width="440" height="60" as="geometry" />
        </mxCell>
        <mxCell id="4-qWNyt98Z3QxgI1turu-33" value="" style="edgeStyle=orthogonalEdgeStyle;rounded=0;orthogonalLoop=1;jettySize=auto;html=1;fontSize=36;" edge="1" parent="1" source="4-qWNyt98Z3QxgI1turu-23" target="4-qWNyt98Z3QxgI1turu-32">
          <mxGeometry relative="1" as="geometry" />
        </mxCell>
        <mxCell id="4-qWNyt98Z3QxgI1turu-23" value="" style="shape=trapezoid;perimeter=trapezoidPerimeter;whiteSpace=wrap;html=1;fixedSize=1;fontSize=48;rotation=90;" vertex="1" parent="1">
          <mxGeometry x="64.5" y="505.5" width="89" height="40" as="geometry" />
        </mxCell>
        <mxCell id="4-qWNyt98Z3QxgI1turu-24" value="" style="shape=trapezoid;perimeter=trapezoidPerimeter;whiteSpace=wrap;html=1;fixedSize=1;fontSize=48;rotation=90;" vertex="1" parent="1">
          <mxGeometry x="233.5" y="220" width="110" height="89.75" as="geometry" />
        </mxCell>
        <mxCell id="4-qWNyt98Z3QxgI1turu-31" value="" style="swimlane;startSize=0;fontSize=48;" vertex="1" parent="1">
          <mxGeometry x="309" y="436.63" width="141" height="200" as="geometry">
            <mxRectangle x="335" y="330" width="175" height="215.5" as="alternateBounds" />
          </mxGeometry>
        </mxCell>
        <mxCell id="4-qWNyt98Z3QxgI1turu-42" value="IMEM" style="text;html=1;align=center;verticalAlign=middle;resizable=0;points=[];autosize=1;strokeColor=none;fillColor=none;fontSize=24;" vertex="1" parent="4-qWNyt98Z3QxgI1turu-31">
          <mxGeometry x="30.5" y="12.25" width="80" height="30" as="geometry" />
        </mxCell>
        <mxCell id="4-qWNyt98Z3QxgI1turu-43" value="Addr" style="text;html=1;align=center;verticalAlign=middle;resizable=0;points=[];autosize=1;strokeColor=none;fillColor=none;fontSize=24;" vertex="1" parent="4-qWNyt98Z3QxgI1turu-31">
          <mxGeometry x="-4" y="70.5" width="70" height="30" as="geometry" />
        </mxCell>
        <mxCell id="4-qWNyt98Z3QxgI1turu-44" value="Instr" style="text;html=1;align=center;verticalAlign=middle;resizable=0;points=[];autosize=1;strokeColor=none;fillColor=none;fontSize=24;" vertex="1" parent="4-qWNyt98Z3QxgI1turu-31">
          <mxGeometry x="81" y="143.37" width="60" height="30" as="geometry" />
        </mxCell>
        <mxCell id="4-qWNyt98Z3QxgI1turu-46" value="" style="edgeStyle=orthogonalEdgeStyle;rounded=0;orthogonalLoop=1;jettySize=auto;html=1;fontSize=24;" edge="1" parent="1" source="4-qWNyt98Z3QxgI1turu-32" target="4-qWNyt98Z3QxgI1turu-43">
          <mxGeometry relative="1" as="geometry" />
        </mxCell>
        <mxCell id="4-qWNyt98Z3QxgI1turu-65" style="edgeStyle=orthogonalEdgeStyle;rounded=0;orthogonalLoop=1;jettySize=auto;html=1;entryX=0;entryY=0.5;entryDx=0;entryDy=0;fontSize=24;" edge="1" parent="1" source="4-qWNyt98Z3QxgI1turu-32" target="4-qWNyt98Z3QxgI1turu-57">
          <mxGeometry relative="1" as="geometry">
            <Array as="points">
              <mxPoint x="270" y="526" />
              <mxPoint x="270" y="828" />
            </Array>
          </mxGeometry>
        </mxCell>
        <mxCell id="4-qWNyt98Z3QxgI1turu-81" style="edgeStyle=orthogonalEdgeStyle;rounded=0;orthogonalLoop=1;jettySize=auto;html=1;exitX=1;exitY=0.5;exitDx=0;exitDy=0;entryX=0.75;entryY=1;entryDx=0;entryDy=0;fontSize=24;" edge="1" parent="1" source="4-qWNyt98Z3QxgI1turu-32" target="4-qWNyt98Z3QxgI1turu-24">
          <mxGeometry relative="1" as="geometry" />
        </mxCell>
        <mxCell id="4-qWNyt98Z3QxgI1turu-32" value="&lt;font style=&quot;font-size: 36px&quot;&gt;PC&lt;/font&gt;" style="rounded=0;whiteSpace=wrap;html=1;fontSize=48;" vertex="1" parent="1">
          <mxGeometry x="160" y="467.75" width="80" height="115.5" as="geometry" />
        </mxCell>
        <mxCell id="4-qWNyt98Z3QxgI1turu-35" value="0&lt;br&gt;1" style="text;html=1;align=center;verticalAlign=middle;resizable=0;points=[];autosize=1;strokeColor=none;fillColor=none;fontSize=24;" vertex="1" parent="1">
          <mxGeometry x="94" y="495.5" width="30" height="60" as="geometry" />
        </mxCell>
        <mxCell id="4-qWNyt98Z3QxgI1turu-36" value="" style="triangle;whiteSpace=wrap;html=1;fontSize=24;rotation=-90;" vertex="1" parent="1">
          <mxGeometry x="187.5" y="552.13" width="25" height="34.5" as="geometry" />
        </mxCell>
        <mxCell id="4-qWNyt98Z3QxgI1turu-82" style="edgeStyle=orthogonalEdgeStyle;rounded=0;orthogonalLoop=1;jettySize=auto;html=1;entryX=0.346;entryY=1.021;entryDx=0;entryDy=0;entryPerimeter=0;fontSize=24;" edge="1" parent="1" source="4-qWNyt98Z3QxgI1turu-39" target="4-qWNyt98Z3QxgI1turu-23">
          <mxGeometry relative="1" as="geometry">
            <Array as="points">
              <mxPoint x="380" y="260" />
              <mxPoint x="380" y="170" />
              <mxPoint x="69" y="170" />
              <mxPoint x="69" y="512" />
            </Array>
          </mxGeometry>
        </mxCell>
        <mxCell id="4-qWNyt98Z3QxgI1turu-39" value="ADD" style="text;html=1;align=center;verticalAlign=middle;resizable=0;points=[];autosize=1;strokeColor=none;fillColor=none;fontSize=24;" vertex="1" parent="1">
          <mxGeometry x="268.37" y="249.87" width="70" height="30" as="geometry" />
        </mxCell>
        <mxCell id="4-qWNyt98Z3QxgI1turu-40" value="" style="triangle;whiteSpace=wrap;html=1;fontSize=24;rotation=0;" vertex="1" parent="1">
          <mxGeometry x="243.37" y="247.62" width="25" height="34.5" as="geometry" />
        </mxCell>
        <mxCell id="4-qWNyt98Z3QxgI1turu-51" style="edgeStyle=orthogonalEdgeStyle;rounded=0;orthogonalLoop=1;jettySize=auto;html=1;entryX=0.25;entryY=1;entryDx=0;entryDy=0;fontSize=24;" edge="1" parent="1" source="4-qWNyt98Z3QxgI1turu-44" target="4-qWNyt98Z3QxgI1turu-47">
          <mxGeometry relative="1" as="geometry" />
        </mxCell>
        <mxCell id="4-qWNyt98Z3QxgI1turu-47" value="" style="shape=trapezoid;perimeter=trapezoidPerimeter;whiteSpace=wrap;html=1;fixedSize=1;fontSize=48;rotation=90;" vertex="1" parent="1">
          <mxGeometry x="465" y="610" width="89" height="40" as="geometry" />
        </mxCell>
        <mxCell id="4-qWNyt98Z3QxgI1turu-60" style="edgeStyle=orthogonalEdgeStyle;rounded=0;orthogonalLoop=1;jettySize=auto;html=1;entryX=0;entryY=0.5;entryDx=0;entryDy=0;fontSize=24;" edge="1" parent="1" source="4-qWNyt98Z3QxgI1turu-48" target="4-qWNyt98Z3QxgI1turu-55">
          <mxGeometry relative="1" as="geometry" />
        </mxCell>
        <mxCell id="4-qWNyt98Z3QxgI1turu-48" value="0&lt;br&gt;1" style="text;html=1;align=center;verticalAlign=middle;resizable=0;points=[];autosize=1;strokeColor=none;fillColor=none;fontSize=24;" vertex="1" parent="1">
          <mxGeometry x="494.5" y="600" width="30" height="60" as="geometry" />
        </mxCell>
        <mxCell id="4-qWNyt98Z3QxgI1turu-89" style="edgeStyle=orthogonalEdgeStyle;rounded=0;orthogonalLoop=1;jettySize=auto;html=1;entryX=0.75;entryY=1;entryDx=0;entryDy=0;fontSize=24;" edge="1" parent="1" source="4-qWNyt98Z3QxgI1turu-52" target="4-qWNyt98Z3QxgI1turu-47">
          <mxGeometry relative="1" as="geometry" />
        </mxCell>
        <mxCell id="4-qWNyt98Z3QxgI1turu-52" value="NOP" style="text;html=1;align=center;verticalAlign=middle;resizable=0;points=[];autosize=1;strokeColor=none;fillColor=none;fontSize=24;" vertex="1" parent="1">
          <mxGeometry x="325" y="690" width="70" height="30" as="geometry" />
        </mxCell>
        <mxCell id="4-qWNyt98Z3QxgI1turu-87" style="edgeStyle=orthogonalEdgeStyle;rounded=0;orthogonalLoop=1;jettySize=auto;html=1;entryX=-0.001;entryY=0.355;entryDx=0;entryDy=0;entryPerimeter=0;fontSize=24;" edge="1" parent="1" source="4-qWNyt98Z3QxgI1turu-55" target="4-qWNyt98Z3QxgI1turu-75">
          <mxGeometry relative="1" as="geometry" />
        </mxCell>
        <mxCell id="4-qWNyt98Z3QxgI1turu-88" style="edgeStyle=orthogonalEdgeStyle;rounded=0;orthogonalLoop=1;jettySize=auto;html=1;entryX=-0.001;entryY=0.502;entryDx=0;entryDy=0;entryPerimeter=0;fontSize=24;" edge="1" parent="1" source="4-qWNyt98Z3QxgI1turu-55" target="4-qWNyt98Z3QxgI1turu-76">
          <mxGeometry relative="1" as="geometry" />
        </mxCell>
        <mxCell id="4-qWNyt98Z3QxgI1turu-91" style="edgeStyle=orthogonalEdgeStyle;rounded=0;orthogonalLoop=1;jettySize=auto;html=1;fontSize=24;" edge="1" parent="1" source="4-qWNyt98Z3QxgI1turu-55" target="4-qWNyt98Z3QxgI1turu-5">
          <mxGeometry relative="1" as="geometry">
            <Array as="points">
              <mxPoint x="700" y="594" />
              <mxPoint x="700" y="900" />
              <mxPoint x="360" y="900" />
            </Array>
          </mxGeometry>
        </mxCell>
        <mxCell id="4-qWNyt98Z3QxgI1turu-95" style="edgeStyle=orthogonalEdgeStyle;rounded=0;orthogonalLoop=1;jettySize=auto;html=1;entryX=0.5;entryY=1;entryDx=0;entryDy=0;fontSize=24;" edge="1" parent="1" source="4-qWNyt98Z3QxgI1turu-55" target="4-qWNyt98Z3QxgI1turu-92">
          <mxGeometry relative="1" as="geometry">
            <Array as="points">
              <mxPoint x="750" y="594" />
              <mxPoint x="750" y="785" />
            </Array>
          </mxGeometry>
        </mxCell>
        <mxCell id="4-qWNyt98Z3QxgI1turu-55" value="&lt;font style=&quot;font-size: 36px&quot;&gt;Instr&lt;/font&gt;" style="rounded=0;whiteSpace=wrap;html=1;fontSize=48;" vertex="1" parent="1">
          <mxGeometry x="580" y="536.62" width="80" height="115.5" as="geometry" />
        </mxCell>
        <mxCell id="4-qWNyt98Z3QxgI1turu-56" value="" style="triangle;whiteSpace=wrap;html=1;fontSize=24;rotation=-90;" vertex="1" parent="1">
          <mxGeometry x="607.5" y="624.37" width="25" height="34.5" as="geometry" />
        </mxCell>
        <mxCell id="4-qWNyt98Z3QxgI1turu-57" value="&lt;font style=&quot;font-size: 36px&quot;&gt;PC&lt;/font&gt;" style="rounded=0;whiteSpace=wrap;html=1;fontSize=48;" vertex="1" parent="1">
          <mxGeometry x="582.25" y="751.12" width="80" height="115.5" as="geometry" />
        </mxCell>
        <mxCell id="4-qWNyt98Z3QxgI1turu-58" value="" style="triangle;whiteSpace=wrap;html=1;fontSize=24;rotation=-90;" vertex="1" parent="1">
          <mxGeometry x="609.75" y="838.87" width="25" height="34.5" as="geometry" />
        </mxCell>
        <mxCell id="4-qWNyt98Z3QxgI1turu-70" value="" style="swimlane;startSize=0;fontSize=48;" vertex="1" parent="1">
          <mxGeometry x="780" y="362.13" width="220" height="274.5" as="geometry">
            <mxRectangle x="335" y="330" width="175" height="215.5" as="alternateBounds" />
          </mxGeometry>
        </mxCell>
        <mxCell id="4-qWNyt98Z3QxgI1turu-71" value="REG" style="text;html=1;align=center;verticalAlign=middle;resizable=0;points=[];autosize=1;strokeColor=none;fillColor=none;fontSize=24;" vertex="1" parent="4-qWNyt98Z3QxgI1turu-70">
          <mxGeometry x="75" y="12.25" width="70" height="30" as="geometry" />
        </mxCell>
        <mxCell id="4-qWNyt98Z3QxgI1turu-72" value="DataD" style="text;html=1;align=center;verticalAlign=middle;resizable=0;points=[];autosize=1;strokeColor=none;fillColor=none;fontSize=24;" vertex="1" parent="4-qWNyt98Z3QxgI1turu-70">
          <mxGeometry y="70.5" width="80" height="30" as="geometry" />
        </mxCell>
        <mxCell id="4-qWNyt98Z3QxgI1turu-74" value="AddrD" style="text;html=1;align=center;verticalAlign=middle;resizable=0;points=[];autosize=1;strokeColor=none;fillColor=none;fontSize=24;" vertex="1" parent="4-qWNyt98Z3QxgI1turu-70">
          <mxGeometry y="110" width="80" height="30" as="geometry" />
        </mxCell>
        <mxCell id="4-qWNyt98Z3QxgI1turu-75" value="AddrA" style="text;html=1;align=center;verticalAlign=middle;resizable=0;points=[];autosize=1;strokeColor=none;fillColor=none;fontSize=24;" vertex="1" parent="4-qWNyt98Z3QxgI1turu-70">
          <mxGeometry y="150" width="80" height="30" as="geometry" />
        </mxCell>
        <mxCell id="4-qWNyt98Z3QxgI1turu-76" value="AddrB" style="text;html=1;align=center;verticalAlign=middle;resizable=0;points=[];autosize=1;strokeColor=none;fillColor=none;fontSize=24;" vertex="1" parent="4-qWNyt98Z3QxgI1turu-70">
          <mxGeometry y="195" width="80" height="30" as="geometry" />
        </mxCell>
        <mxCell id="4-qWNyt98Z3QxgI1turu-77" value="DataB" style="text;html=1;align=center;verticalAlign=middle;resizable=0;points=[];autosize=1;strokeColor=none;fillColor=none;fontSize=24;" vertex="1" parent="4-qWNyt98Z3QxgI1turu-70">
          <mxGeometry x="140" y="180" width="80" height="30" as="geometry" />
        </mxCell>
        <mxCell id="4-qWNyt98Z3QxgI1turu-78" value="" style="triangle;whiteSpace=wrap;html=1;fontSize=24;rotation=-90;" vertex="1" parent="4-qWNyt98Z3QxgI1turu-70">
          <mxGeometry x="97.5" y="250" width="25" height="34.5" as="geometry" />
        </mxCell>
        <mxCell id="4-qWNyt98Z3QxgI1turu-73" value="DataA" style="text;html=1;align=center;verticalAlign=middle;resizable=0;points=[];autosize=1;strokeColor=none;fillColor=none;fontSize=24;" vertex="1" parent="4-qWNyt98Z3QxgI1turu-70">
          <mxGeometry x="140" y="92.87" width="80" height="30" as="geometry" />
        </mxCell>
        <mxCell id="4-qWNyt98Z3QxgI1turu-80" style="edgeStyle=orthogonalEdgeStyle;rounded=0;orthogonalLoop=1;jettySize=auto;html=1;entryX=0.25;entryY=1;entryDx=0;entryDy=0;fontSize=24;" edge="1" parent="1" source="4-qWNyt98Z3QxgI1turu-79" target="4-qWNyt98Z3QxgI1turu-24">
          <mxGeometry relative="1" as="geometry" />
        </mxCell>
        <mxCell id="4-qWNyt98Z3QxgI1turu-79" value="+4" style="text;html=1;align=center;verticalAlign=middle;resizable=0;points=[];autosize=1;strokeColor=none;fillColor=none;fontSize=24;" vertex="1" parent="1">
          <mxGeometry x="153.5" y="210" width="40" height="30" as="geometry" />
        </mxCell>
        <mxCell id="4-qWNyt98Z3QxgI1turu-92" value="" style="shape=trapezoid;perimeter=trapezoidPerimeter;whiteSpace=wrap;html=1;fixedSize=1;fontSize=48;rotation=90;" vertex="1" parent="1">
          <mxGeometry x="780" y="740" width="110" height="89.75" as="geometry" />
        </mxCell>
        <mxCell id="4-qWNyt98Z3QxgI1turu-93" value="PC &lt;br&gt;Gen" style="text;html=1;align=center;verticalAlign=middle;resizable=0;points=[];autosize=1;strokeColor=none;fillColor=none;fontSize=24;" vertex="1" parent="1">
          <mxGeometry x="805" y="754.88" width="60" height="60" as="geometry" />
        </mxCell>
      </root>
    </mxGraphModel>
  </diagram>
</mxfile>
